<svg width="41" height="40" viewBox="0 0 41 40" fill="none" xmlns="http://www.w3.org/2000/svg">
<g clip-path="url(#clip0_11_1344)">
<path d="M37.7469 21.4471C37.7466 21.444 37.7463 21.4408 37.7459 21.4376C37.5808 20.0991 36.6719 18.784 35.5847 18.3107C34.7854 17.9686 33.927 17.7516 33.0463 17.6689C33.0279 17.6649 32.4995 17.6273 32.4581 17.6254C28.0191 17.4249 25.6579 16.1384 23.3734 14.8936C22.5423 14.4408 21.7573 14.0131 20.8829 13.6389C20.3561 13.4144 19.7694 13.3281 19.1903 13.3901C18.6113 13.4521 18.0636 13.6598 17.6103 13.9892C17.0347 14.4147 16.4219 14.7979 15.778 15.1353C13.7987 15.5707 12.7806 14.9993 11.8819 14.4941C11.7128 14.3991 11.553 14.3093 11.3906 14.2281C8.07582 12.5721 5.88958 13.7407 5.48912 13.9885C5.48718 13.9891 5.4852 13.9896 5.48327 13.9902C4.72196 14.2487 4.24132 15.106 3.96989 16.6923C3.94047 16.8781 3.24956 21.2601 3.27575 22.7248C3.27683 22.7852 3.27541 22.8583 3.27388 22.9414C3.27184 23.0533 3.26954 23.1803 3.27149 23.3219C3.27149 23.325 3.27162 23.328 3.27173 23.3311C3.29592 23.9637 3.50297 24.5797 3.87255 25.1187C4.30456 25.7292 5.18323 26.4812 6.91734 26.6023C6.93295 26.6039 6.94863 26.6046 6.96432 26.6046H29.0682C29.2264 26.6044 29.3802 26.5989 29.5253 26.5885C34.476 26.2334 36.4774 24.708 37.2846 23.4907C37.2887 23.4846 37.2926 23.4782 37.2963 23.4719C37.6608 22.8501 37.8173 22.1469 37.7469 21.4471ZM16.1495 15.8269C16.8532 15.4624 17.522 15.0462 18.1491 14.5825C18.477 14.3443 18.8732 14.1942 19.292 14.1495C19.7107 14.1048 20.1351 14.1673 20.516 14.3298C21.3517 14.6875 22.1189 15.1056 22.9311 15.5481C25.2263 16.7987 27.8278 18.2162 32.6028 18.3978C32.662 18.4013 32.7246 18.4059 32.7921 18.4116C33.0672 18.5913 33.0974 18.6812 33.0865 18.8057C33.0117 18.8989 32.6494 19.2116 31.0347 19.5007C30.9993 19.507 30.9715 19.512 30.9527 19.5156C30.9424 19.5175 30.9324 19.5197 30.9227 19.522C30.6164 19.5567 28.4236 19.7825 25.4817 19.4927C22.7315 19.2217 18.789 18.4342 15.2407 16.2437C15.5396 16.1221 15.8397 15.9846 16.1387 15.8322C16.1423 15.8305 16.1459 15.8287 16.1495 15.8269ZM10.9761 14.8971C11.1194 14.9687 11.27 15.0534 11.4296 15.1431C11.9698 15.4467 12.6244 15.8139 13.5266 15.9737C10.3377 16.7001 8.24506 15.1341 7.40218 14.5027C7.27144 14.4041 7.13372 14.3133 6.98988 14.2307C7.85067 14.0396 9.21455 14.0171 10.9761 14.8971ZM5.7849 14.7063C6.10219 14.5986 6.54256 14.8558 6.85607 15.0906C7.74757 15.7584 9.15705 16.671 11.0962 16.886C12.1372 17.0014 13.2046 16.897 14.2916 16.5761C18.1035 19.0831 22.4188 19.9611 25.3887 20.2537C26.4096 20.3544 27.4358 20.4051 28.4629 20.4056C30.0288 20.4056 31.0158 20.2838 31.0786 20.2758C31.1041 20.2726 31.1293 20.2673 31.1537 20.2599C31.1668 20.2576 31.1827 20.2548 31.2014 20.2515C32.8143 19.9627 33.6715 19.5826 33.8992 19.0554C33.912 19.0258 33.9207 18.9949 33.925 18.9633C33.9445 18.8372 33.9436 18.7092 33.9222 18.5834C34.3673 18.6815 34.7998 18.821 35.2128 18.9995C35.4139 19.0919 35.5977 19.2119 35.7575 19.3553C36.257 21.0068 35.4236 22.3212 33.3401 23.16C33.3362 23.1616 33.3323 23.1632 33.3285 23.1648C31.4778 23.9705 26.2593 24.2364 17.8181 23.9548C17.8162 23.9547 17.8142 23.9547 17.8121 23.9547C15.8811 23.8905 13.8002 23.7985 11.6271 23.6814C10.4195 23.6184 9.21813 23.4822 8.03106 23.2736C5.82858 22.8827 4.66658 22.4161 4.14416 22.1541C4.24821 20.3878 4.80762 16.8406 4.81334 16.8043C5.09281 15.171 5.54199 14.7888 5.7849 14.7063ZM36.5458 23.1084C35.1974 25.1265 31.5272 25.6769 29.4572 25.8254C29.334 25.8342 29.2026 25.8388 29.0674 25.8391H6.98373C5.87295 25.7617 5.06846 25.3812 4.59226 24.7082C4.30642 24.2846 4.14527 23.8027 4.12399 23.3078C4.12257 23.1996 4.1239 23.0986 4.1255 23.0063C4.83589 23.3098 6.01011 23.6953 7.86563 24.0246C9.09048 24.2399 10.3301 24.3805 11.5761 24.4456C13.7573 24.5631 15.8463 24.6554 17.7851 24.7199C17.787 24.72 17.789 24.72 17.791 24.72C26.4826 25.0097 31.6853 24.7271 33.6947 23.8563C35.3067 23.206 36.2946 22.2869 36.6307 21.1245C36.6649 21.0063 36.6919 20.8866 36.7118 20.7659C36.7128 20.7687 36.7137 20.7716 36.7147 20.7744C36.7146 20.7723 36.7147 20.7703 36.7147 20.7683C36.8044 21.0116 36.8658 21.2625 36.8979 21.5172C36.9523 22.0669 36.8301 22.6191 36.5458 23.1084Z" fill="black"/>
</g>
<defs>
<clipPath id="clip0_11_1344">
<rect width="40" height="40" fill="white" transform="translate(0.5)"/>
</clipPath>
</defs>
</svg>
