<svg width="40" height="40" viewBox="0 0 40 40" fill="none" xmlns="http://www.w3.org/2000/svg">
<g clip-path="url(#clip0_11_1361)">
<path d="M2.80805 21.8103C2.80805 21.8143 2.80805 21.8223 2.81205 21.8263C2.81205 21.8303 2.81605 21.8383 2.81605 21.8423C2.81605 21.8463 2.82005 21.8503 2.82005 21.8543C2.82005 21.8583 2.82405 21.8663 2.82405 21.8703C2.82405 21.8743 2.82805 21.8783 2.82805 21.8823C2.83205 21.8863 2.83205 21.8943 2.83605 21.8983C2.83605 21.9023 2.84005 21.9063 2.84005 21.9103C2.84405 21.9143 2.84405 21.9223 2.84805 21.9263C2.85205 21.9303 2.85205 21.9343 2.85605 21.9383C2.86005 21.9423 2.86005 21.9463 2.86405 21.9503C2.86805 21.9543 2.87205 21.9583 2.87605 21.9663C2.88005 21.9703 2.88005 21.9743 2.88405 21.9783C2.88805 21.9823 2.89205 21.9903 2.89605 21.9943L2.90005 21.9983C2.94405 22.0423 3.98805 23.0823 6.12405 24.2263C7.37205 24.8943 8.73605 25.4583 10.18 25.9023C11.984 26.4583 13.916 26.8263 15.924 27.0023C17.44 27.1343 18.616 27.1903 19.5721 27.1903C21.496 27.1903 22.5321 26.9703 23.6761 26.7303C24.7201 26.5103 25.9 26.2623 27.9881 26.1383C28.456 26.6063 28.788 27.1103 28.7921 27.1143L28.856 27.2143L28.9681 27.2503C29.2481 27.3383 29.7121 27.3823 30.364 27.3823C31.0321 27.3823 31.904 27.3383 32.984 27.2463C34.532 27.1143 35.944 26.9343 35.9561 26.9343L36.2281 26.8983L36.356 24.0103C36.784 22.8703 36.904 21.5503 36.712 20.0823C36.552 18.8423 36.196 17.7503 35.9281 17.0543C35.7001 16.4583 35.076 16.1023 34.448 16.2063C33.2961 16.3943 30.464 16.8023 29.056 16.4703C28.136 16.2543 26.824 15.1103 25.4601 13.3303C25.0201 12.7583 24.212 12.6303 23.6201 13.0383C23.4361 13.1663 23.2441 13.2943 23.048 13.4263L22.9321 13.3063C22.8041 13.1783 22.6 13.1783 22.472 13.3023C22.344 13.4263 22.344 13.6343 22.468 13.7623L22.4921 13.7863C22.0921 14.0463 21.684 14.3063 21.2761 14.5543L21.108 14.3863C20.98 14.2583 20.7761 14.2583 20.6481 14.3823C20.5201 14.5103 20.5201 14.7143 20.644 14.8423L20.7 14.8983C20.276 15.1503 19.856 15.3943 19.44 15.6223L19.284 15.4663C19.156 15.3383 18.952 15.3383 18.824 15.4623C18.696 15.5903 18.6961 15.7943 18.8201 15.9223L18.844 15.9463C15.22 17.8823 12.224 18.7943 10.168 18.5863C6.26005 18.1903 4.42405 19.5343 3.68005 20.3703C3.36005 20.7303 2.86805 21.5663 2.84405 21.6023C2.84405 21.6023 2.84405 21.6063 2.84005 21.6063C2.83605 21.6103 2.83205 21.6183 2.83205 21.6263C2.83205 21.6303 2.82805 21.6343 2.82805 21.6383C2.82405 21.6423 2.82405 21.6503 2.82005 21.6543C2.82005 21.6583 2.81605 21.6623 2.81605 21.6663C2.81605 21.6703 2.81205 21.6783 2.81205 21.6823C2.81205 21.6863 2.80805 21.6943 2.80805 21.6983C2.80805 21.7023 2.80805 21.7063 2.80405 21.7103C2.80405 21.7183 2.80005 21.7223 2.80005 21.7303C2.80005 21.7343 2.80005 21.7383 2.80005 21.7423C2.80005 21.7503 2.80005 21.7543 2.80005 21.7623C2.80005 21.7663 2.80005 21.7703 2.80005 21.7743C2.80005 21.7783 2.80005 21.7863 2.80005 21.7903C2.80405 21.8023 2.80805 21.8063 2.80805 21.8103ZM10.108 19.2383C11.38 19.3663 12.948 19.1143 14.772 18.4863C16.152 18.0103 17.684 17.3183 19.328 16.4303L20.0201 17.1303C20.0841 17.1943 20.168 17.2263 20.252 17.2263C20.336 17.2263 20.42 17.1943 20.48 17.1303C20.608 17.0023 20.608 16.7983 20.484 16.6703L19.924 16.1023C20.336 15.8703 20.756 15.6263 21.18 15.3743L21.844 16.0463C21.908 16.1103 21.9921 16.1423 22.076 16.1423C22.16 16.1423 22.244 16.1103 22.3041 16.0463C22.4321 15.9183 22.432 15.7143 22.308 15.5863L21.752 15.0263C22.16 14.7743 22.5641 14.5183 22.9641 14.2543L23.6641 14.9623C23.7281 15.0263 23.812 15.0583 23.896 15.0583C23.98 15.0583 24.064 15.0263 24.124 14.9623C24.252 14.8343 24.252 14.6303 24.128 14.5023L23.5201 13.8863C23.68 13.7783 23.84 13.6703 23.996 13.5623C24.304 13.3503 24.7201 13.4183 24.948 13.7143C25.3521 14.2383 25.976 15.0063 26.6761 15.6703C27.504 16.4623 28.26 16.9383 28.912 17.0943C30.38 17.4383 33.08 17.0823 34.56 16.8383C34.884 16.7863 35.208 16.9703 35.328 17.2783C35.868 18.6863 36.6361 21.3863 35.7601 23.7463C34.4 23.8383 32.8601 23.8783 31.1761 23.8583C25.9121 23.7983 24.3081 24.2223 23.0201 24.5663C21.732 24.9063 20.716 25.1743 16.368 24.7943C9.87205 24.2263 6.00405 21.7943 4.42005 20.5543C5.20005 19.8343 6.86405 18.9103 10.108 19.2383ZM3.98005 21.0503C4.68405 21.6023 5.95205 22.4783 7.79605 23.3103C10.348 24.4623 13.212 25.1823 16.304 25.4503C17.8321 25.5823 18.96 25.6383 19.84 25.6383C21.528 25.6383 22.296 25.4343 23.184 25.2023C24.436 24.8703 25.9921 24.4623 31.1681 24.5183C32.8241 24.5383 34.34 24.5023 35.6921 24.4143L35.6081 26.3183C33.9521 26.5223 30.34 26.8863 29.272 26.6543C29.128 26.4503 28.784 25.9863 28.34 25.5703L28.3361 25.5663C28.3321 25.5623 28.3281 25.5623 28.3241 25.5583C28.3201 25.5543 28.3161 25.5503 28.3081 25.5463C28.3041 25.5463 28.304 25.5423 28.3 25.5423C28.292 25.5383 28.2881 25.5343 28.2801 25.5303C28.2801 25.5303 28.2761 25.5303 28.2761 25.5263C28.268 25.5223 28.2601 25.5183 28.2521 25.5143C28.2521 25.5143 28.2481 25.5143 28.2481 25.5103C28.24 25.5063 28.2321 25.5023 28.2241 25.4983C28.2201 25.4983 28.22 25.4983 28.216 25.4943C28.208 25.4903 28.2001 25.4903 28.1921 25.4863C28.1881 25.4863 28.1841 25.4863 28.1801 25.4823C28.1721 25.4823 28.1681 25.4783 28.16 25.4783C28.156 25.4783 28.1521 25.4783 28.1481 25.4783C28.1401 25.4783 28.136 25.4783 28.128 25.4783C28.124 25.4783 28.1201 25.4783 28.116 25.4783C28.108 25.4783 28.1041 25.4783 28.0961 25.4783H28.0921C25.864 25.5983 24.628 25.8583 23.54 26.0903C21.816 26.4543 20.452 26.7423 15.98 26.3503C11.556 25.9623 8.36005 24.6783 6.46005 23.6663C4.89605 22.8343 3.92805 22.0463 3.54805 21.7103C3.66805 21.5143 3.83205 21.2583 3.98005 21.0503Z" fill="black"/>
</g>
<defs>
<clipPath id="clip0_11_1361">
<rect width="40" height="40" fill="white"/>
</clipPath>
</defs>
</svg>
