<svg width="40" height="40" viewBox="0 0 40 40" fill="none" xmlns="http://www.w3.org/2000/svg">
<g clip-path="url(#clip0_11_1367)">
<path d="M1.2427 25.2033C1.44195 24.1702 2.00662 23.2433 2.83334 22.5925C3.66007 21.9417 4.69354 21.6104 5.74458 21.6592C7.94621 21.7268 10.1407 21.3759 12.2115 20.6252L12.2268 20.6189C18.8333 18.2155 21.8396 9.26079 21.8689 9.17079C21.8737 9.15718 21.8791 9.14383 21.8852 9.13079C22.0193 8.82482 22.2215 8.55354 22.4764 8.33766C22.7314 8.12178 23.0323 7.96701 23.3561 7.88516C24.6118 7.57266 26.1105 8.33891 26.7968 8.83954C29.153 10.5583 34.7133 10.2145 36.1571 9.87079C36.5876 9.77974 37.0367 9.85473 37.4143 10.0807C37.7919 10.3067 38.0701 10.6671 38.1933 11.0895C38.6099 12.4205 38.1061 14.2552 37.9746 14.6898C38.3243 15.9598 40.3308 23.6205 38.6193 25.7736L39.0496 26.2755C39.185 26.4329 39.2646 26.6306 39.2761 26.838C39.3233 27.6573 39.4249 29.6861 39.3458 30.8261C39.3286 31.0661 39.2212 31.2907 39.0453 31.4549C38.8694 31.6191 38.638 31.7107 38.3974 31.7114H27.3036C27.0517 31.7112 26.8102 31.611 26.6321 31.4328C26.4539 31.2546 26.3538 31.013 26.3536 30.7611V29.817C25.0605 30.3358 21.2474 31.7995 19.4036 31.7995C19.3593 31.7996 19.3155 31.7902 19.2751 31.7719C19.2347 31.7537 19.1986 31.7271 19.1693 31.6939L18.9374 31.4308L18.849 31.7914C18.8351 31.8481 18.8057 31.8997 18.7641 31.9405C18.7225 31.9813 18.6702 32.0097 18.6133 32.0223C18.539 32.0389 16.7696 32.4286 15.5821 32.2998C15.5313 32.2943 15.4826 32.2764 15.4403 32.2477C15.398 32.219 15.3634 32.1803 15.3396 32.1352L15.2261 31.9195L15.0586 32.2548C15.0326 32.3067 14.9927 32.3504 14.9433 32.3808C14.8939 32.4113 14.837 32.4274 14.7789 32.4273H12.3508C12.2922 32.4274 12.2348 32.411 12.185 32.38C12.1353 32.349 12.0953 32.3047 12.0696 32.252L11.8924 31.8895L11.6814 32.2673C11.6543 32.3159 11.6147 32.3563 11.5668 32.3844C11.5188 32.4125 11.4642 32.4274 11.4086 32.4273C11.3983 32.4273 11.3877 32.4273 11.3774 32.4273C10.5253 32.3455 9.67844 32.2169 8.84051 32.042C8.78399 32.0275 8.73266 31.9974 8.69234 31.9553C8.65202 31.9131 8.62432 31.8604 8.61239 31.8033L8.57114 31.6064L8.4827 31.7314C8.45081 31.7767 8.40748 31.8126 8.35713 31.8356C8.30678 31.8586 8.25122 31.8679 8.19614 31.8624C7.29501 31.7661 6.41781 31.5123 5.60458 31.1123C5.55621 31.0852 5.51596 31.0456 5.48795 30.9977C5.45994 30.9498 5.44519 30.8953 5.4452 30.8398V30.7686L5.35489 30.8467C5.31521 30.8808 5.26761 30.9044 5.21645 30.9153C5.16529 30.9262 5.11221 30.9241 5.06207 30.9092C4.96364 30.8802 2.62458 30.1805 1.03583 28.8755C0.850304 28.7212 0.732166 28.5007 0.706451 28.2608L0.699886 28.2027C0.640202 27.6764 0.515511 26.5814 0.717701 25.812C0.748447 25.6752 0.812435 25.5481 0.904007 25.4419C0.995579 25.3358 1.1119 25.2538 1.2427 25.2033ZM1.85739 25.3139C3.17415 26.1306 4.57152 26.8095 6.02739 27.3398C6.44395 26.9942 6.72145 25.9983 6.7127 24.8255C6.70395 23.6205 6.38176 22.5736 5.93926 22.2855C5.86739 22.2855 5.79739 22.2855 5.72426 22.283C5.68114 22.283 5.6377 22.2811 5.59457 22.2811C4.71577 22.2725 3.86153 22.571 3.17926 23.1249C2.49699 23.6789 2.02948 24.4536 1.85739 25.3155V25.3139ZM23.5061 8.49204C23.2744 8.55113 23.0592 8.66252 22.8771 8.81766C22.6951 8.9728 22.5509 9.16757 22.4558 9.38704C22.2102 10.096 21.9286 10.792 21.6121 11.4723L22.3693 11.8373C22.5872 11.5672 22.897 11.3868 23.2395 11.3307C23.5821 11.2746 23.9333 11.3466 24.226 11.533C24.5188 11.7194 24.7326 12.0072 24.8267 12.3413C24.9207 12.6754 24.8883 13.0325 24.7357 13.3442C24.5831 13.656 24.321 13.9006 23.9995 14.0313C23.678 14.162 23.3195 14.1697 22.9927 14.0529C22.6659 13.936 22.3935 13.7029 22.2278 13.3979C22.062 13.093 22.0143 12.7377 22.094 12.3998L21.344 12.0389C20.7764 13.2103 20.1206 14.3369 19.3824 15.4089L19.888 15.8345C20.13 15.6485 20.4265 15.547 20.7318 15.5458C21.0105 15.5457 21.2829 15.6283 21.5147 15.7831C21.7465 15.9379 21.9271 16.158 22.0338 16.4155C22.1405 16.673 22.1684 16.9563 22.1141 17.2297C22.0597 17.503 21.9255 17.7541 21.7284 17.9512C21.5314 18.1483 21.2803 18.2825 21.0069 18.3369C20.7335 18.3912 20.4502 18.3633 20.1927 18.2566C19.9352 18.1499 19.7152 17.9693 19.5604 17.7375C19.4055 17.5057 19.323 17.2332 19.323 16.9545C19.3246 16.7309 19.38 16.511 19.4846 16.3133L19.0158 15.9192C18.2636 16.9526 17.4047 17.9039 16.4533 18.7573L16.7483 19.2808C17.0808 19.1823 17.4379 19.2097 17.7513 19.3579C18.0648 19.5061 18.3127 19.7645 18.4477 20.0839C18.5826 20.4033 18.5952 20.7612 18.4829 21.0893C18.3706 21.4173 18.1414 21.6925 17.8391 21.8622C17.5367 22.032 17.1824 22.0843 16.8439 22.0093C16.5054 21.9343 16.2063 21.7372 16.004 21.4557C15.8016 21.1742 15.71 20.8279 15.7468 20.4831C15.7836 20.1384 15.9461 19.8192 16.2033 19.5867L15.9677 19.1689C14.9725 19.9884 13.8547 20.6466 12.6552 21.1192C12.699 21.528 12.8764 22.4492 13.5952 22.9667C14.2783 23.4589 15.2999 23.4861 16.6127 23.0545C16.6843 23.0264 23.7283 20.1483 26.5096 9.40485C26.4808 9.38485 26.4505 9.36641 26.4224 9.34579C25.7811 8.87141 24.4686 8.25297 23.5061 8.49204ZM23.7458 12.8483C23.7098 12.9229 23.6456 12.9802 23.5674 13.0075C23.4892 13.0348 23.4033 13.0299 23.3286 12.9939L22.684 12.683C22.684 12.693 22.6808 12.7023 22.6808 12.7127C22.6792 12.8938 22.7397 13.0701 22.8522 13.2121C22.9647 13.3542 23.1224 13.4534 23.2992 13.4932C23.4759 13.5331 23.661 13.5112 23.8236 13.4312C23.9861 13.3512 24.1164 13.218 24.1927 13.0536C24.269 12.8893 24.2867 12.7038 24.2429 12.528C24.199 12.3522 24.0963 12.1967 23.9518 12.0874C23.8072 11.9782 23.6296 11.9217 23.4485 11.9274C23.2675 11.9331 23.0938 12.0007 22.9564 12.1189L23.6002 12.4295C23.6373 12.4474 23.6706 12.4724 23.698 12.5031C23.7255 12.5338 23.7466 12.5697 23.7601 12.6086C23.7737 12.6475 23.7794 12.6887 23.7769 12.7299C23.7745 12.771 23.7639 12.8113 23.7458 12.8483ZM19.9508 16.953C19.9508 17.108 19.9968 17.2595 20.0829 17.3884C20.169 17.5173 20.2914 17.6177 20.4346 17.6771C20.5779 17.7364 20.7354 17.7519 20.8875 17.7217C21.0395 17.6914 21.1792 17.6168 21.2888 17.5072C21.3984 17.3976 21.473 17.2579 21.5033 17.1059C21.5335 16.9538 21.518 16.7963 21.4587 16.653C21.3993 16.5098 21.2989 16.3874 21.17 16.3013C21.0411 16.2152 20.8896 16.1692 20.7346 16.1692C20.6143 16.1699 20.4958 16.1987 20.3886 16.2533L20.9358 16.7139C20.9698 16.7395 20.9982 16.7717 21.0193 16.8086C21.0404 16.8456 21.0537 16.8864 21.0585 16.9287C21.0632 16.971 21.0593 17.0137 21.047 17.0544C21.0346 17.0951 21.0141 17.1329 20.9866 17.1654C20.9592 17.1978 20.9254 17.2244 20.8873 17.2433C20.8492 17.2623 20.8077 17.2733 20.7652 17.2757C20.7228 17.278 20.6803 17.2717 20.6403 17.257C20.6004 17.2424 20.5639 17.2197 20.533 17.1905L19.9865 16.7305C19.9638 16.8025 19.9518 16.8775 19.9508 16.953ZM16.3689 20.6233C16.3689 20.7783 16.4149 20.9298 16.501 21.0587C16.5872 21.1876 16.7096 21.2881 16.8528 21.3474C16.996 21.4067 17.1536 21.4222 17.3056 21.392C17.4576 21.3617 17.5973 21.2871 17.7069 21.1775C17.8165 21.0679 17.8911 20.9282 17.9214 20.7762C17.9516 20.6242 17.9361 20.4666 17.8768 20.3234C17.8175 20.1801 17.717 20.0577 17.5881 19.9716C17.4592 19.8855 17.3077 19.8395 17.1527 19.8395C17.1263 19.8408 17.1 19.8435 17.074 19.8477L17.4249 20.4698C17.4656 20.542 17.4759 20.6274 17.4536 20.7072C17.4314 20.7871 17.3783 20.8548 17.3061 20.8955C17.2339 20.9362 17.1486 20.9465 17.0687 20.9242C16.9889 20.902 16.9212 20.8489 16.8805 20.7767L16.5289 20.1539C16.4257 20.2886 16.3695 20.4535 16.3689 20.6233ZM37.4483 15.1364C35.9155 15.7786 33.9974 15.9289 32.5814 15.9289C31.9274 15.931 31.2736 15.8998 30.6227 15.8352C30.5404 15.8258 30.4651 15.7842 30.4135 15.7194C30.3618 15.6545 30.3381 15.5719 30.3474 15.4895C30.3574 15.4075 30.3992 15.3327 30.4638 15.2811C30.5283 15.2295 30.6105 15.2053 30.6927 15.2136C30.7343 15.2186 34.8218 15.6589 37.3802 14.4908C37.5024 14.077 37.9499 12.4077 37.5958 11.2752C37.5169 11.0056 37.3409 10.7748 37.1018 10.6274C36.8627 10.48 36.5774 10.4265 36.3011 10.477C35.1193 10.7583 29.9458 11.2123 27.0715 9.73579C24.1836 20.6389 17.1468 23.517 16.8286 23.642C16.2282 23.8532 15.5981 23.968 14.9618 23.982C14.3446 24.0016 13.7374 23.8223 13.2299 23.4705C12.9047 23.2108 12.6339 22.8896 12.433 22.5252C12.232 22.1608 12.1049 21.7603 12.0589 21.3467C10.3507 21.9204 8.56631 22.2357 6.76489 22.282C7.16833 22.9383 7.33145 23.9402 7.3377 24.8208C7.34489 25.7939 7.16208 26.9195 6.66582 27.5673C10.1499 28.7548 15.1252 29.5908 20.4861 27.7345C20.5486 27.7133 26.9664 25.6114 38.0686 25.4533C39.4421 24.0505 38.1736 17.8736 37.4483 15.1364ZM1.32145 28.1305L1.32801 28.1883C1.33533 28.2671 1.37325 28.3399 1.43364 28.3911C2.69426 29.4261 4.53051 30.0786 5.07926 30.2573L5.55395 29.848C5.59926 29.8088 5.65487 29.7835 5.71415 29.775C5.77345 29.7666 5.83392 29.7753 5.88837 29.8002C5.94283 29.8251 5.98898 29.8652 6.02133 29.9156C6.05368 29.966 6.07086 30.0246 6.07083 30.0845V30.6498C6.70983 30.9351 7.38691 31.1258 8.08083 31.2161L8.47489 30.6592C8.50984 30.6091 8.55873 30.5703 8.61551 30.5476C8.67229 30.525 8.73447 30.5195 8.79434 30.5319C8.85421 30.5442 8.90914 30.5738 8.95234 30.6171C8.99554 30.6603 9.02511 30.7153 9.03739 30.7752L9.1852 31.4808C9.82707 31.6202 10.8152 31.7373 11.2383 31.7836L11.6399 31.0648C11.6688 31.016 11.7099 30.9755 11.7593 30.9475C11.8086 30.9194 11.8644 30.9047 11.9211 30.9048C11.9782 30.9064 12.0337 30.9236 12.0817 30.9545C12.1297 30.9854 12.1683 31.0289 12.1933 31.0802L12.5471 31.8045H14.5858L14.9389 31.0983C14.9646 31.0469 15.004 31.0036 15.0526 30.9731C15.1013 30.9426 15.1575 30.9261 15.2149 30.9255C15.2722 30.9265 15.3282 30.9423 15.3776 30.9715C15.4269 31.0007 15.4677 31.0423 15.4961 31.092L15.8124 31.6923C16.6444 31.7059 17.4752 31.6249 18.289 31.4511L18.4721 30.7011C18.4856 30.6456 18.514 30.5948 18.5544 30.5543C18.5947 30.5138 18.6454 30.4852 18.7009 30.4715C18.7563 30.4578 18.8145 30.4596 18.8691 30.4766C18.9236 30.4937 18.9724 30.5254 19.0102 30.5683L19.5415 31.1714C21.6874 31.0848 26.4971 29.0845 26.5465 29.0655C26.594 29.0456 26.6456 29.0378 26.6969 29.0427C26.7482 29.0476 26.7974 29.0651 26.8403 29.0937C26.8832 29.1222 26.9183 29.1609 26.9426 29.2063C26.9669 29.2517 26.9796 29.3024 26.9796 29.3539V30.7602C26.9796 30.8464 27.0138 30.9291 27.0747 30.9901C27.1357 31.0511 27.2184 31.0854 27.3046 31.0855H38.3974C38.4798 31.0852 38.5591 31.0538 38.6193 30.9975C38.6795 30.9412 38.7162 30.8643 38.7221 30.782C38.8011 29.6467 38.6886 27.503 38.6524 26.8736C38.6481 26.8031 38.6208 26.736 38.5746 26.6827L38.0583 26.0802C27.0739 26.2364 20.7458 28.3073 20.6874 28.327C18.5327 29.0733 16.268 29.4524 13.9877 29.4486C11.2579 29.4295 8.55223 28.9366 5.99114 27.9917C5.9852 27.9902 5.97958 27.9873 5.97364 27.9855C4.38884 27.4212 2.87028 26.6858 1.44489 25.7923C1.41309 25.8115 1.38575 25.8372 1.36467 25.8678C1.34361 25.8983 1.3293 25.933 1.3227 25.9695C1.15051 26.6255 1.26614 27.642 1.32145 28.1305Z" fill="black"/>
</g>
<defs>
<clipPath id="clip0_11_1367">
<rect width="40" height="40" fill="white" transform="matrix(-1 0 0 1 40 0)"/>
</clipPath>
</defs>
</svg>
