<svg width="41" height="40" viewBox="0 0 41 40" fill="none" xmlns="http://www.w3.org/2000/svg">
<g clip-path="url(#clip0_11_1373)">
<path d="M40.1507 19.4597C40.1507 19.4597 40.145 19.33 40.1435 19.3103C40.1224 19.059 40.0494 18.8148 39.9293 18.5932C39.8091 18.3715 39.6444 18.177 39.4453 18.0222C39.0273 17.6893 38.5025 17.5199 37.9688 17.5456C36.8466 17.5472 32.9063 17.5572 28 17.6259C24.6072 14.2719 17.3163 12.4209 12.5403 13.7362C10.3166 14.3487 8.88222 15.5837 8.36441 17.3144L8.23191 17.3456C8.00165 17.3998 7.79518 17.5272 7.64345 17.7087C7.49172 17.8902 7.40291 18.116 7.39035 18.3522C4.28379 18.5922 2.03597 18.9031 1.44504 19.3072C1.19931 19.4677 1.00254 19.6928 0.8763 19.9578C0.750065 20.2228 0.699244 20.5174 0.729411 20.8094L0.843786 23.6341C0.906286 25.2125 2.48097 25.8741 7.32379 26.3572C9.54254 26.5787 12 26.6891 14.6847 26.6891C18.0172 26.6891 21.6982 26.5184 25.6969 26.1781C32.4903 25.5994 37.8597 24.6894 38.2935 24.6406C38.8572 24.5979 39.3814 24.3352 39.753 23.9091C40.1246 23.4831 40.3137 22.928 40.2794 22.3637L40.1507 19.4597ZM12.7891 14.6403C16.8947 13.5097 23.2166 14.9556 26.6094 17.6466C25.8019 17.6594 24.9741 17.6737 24.1335 17.69C20.7357 15.7572 16.3578 14.6456 12.9094 15.0337C12.198 15.108 11.4985 15.2701 10.8269 15.5166C11.4287 15.1192 12.0915 14.8232 12.7891 14.6403ZM13.0147 15.9669C15.7419 15.6575 19.1782 16.3887 22.1297 17.7319C18.0297 17.8237 13.7741 17.9609 10.1853 18.1659C10.1751 17.9902 10.1197 17.82 10.0246 17.6718C9.92945 17.5237 9.79777 17.4025 9.64222 17.32C10.5516 16.43 11.9282 16.0897 13.0147 15.9669ZM8.44316 18.2584L9.06816 18.1137C9.08016 18.111 9.09241 18.1095 9.10472 18.1094C9.12593 18.1096 9.14686 18.1141 9.16626 18.1227C9.18566 18.1312 9.20311 18.1437 9.21755 18.1592C9.23199 18.1747 9.24312 18.193 9.25027 18.213C9.25741 18.2329 9.26041 18.2541 9.2591 18.2753L9.15285 20.0353C9.15048 20.0747 9.13328 20.1118 9.1047 20.139C9.07611 20.1663 9.03827 20.1817 8.99879 20.1822L8.53004 20.1887C8.50951 20.1899 8.48896 20.1869 8.46966 20.1798C8.45037 20.1727 8.43275 20.1617 8.4179 20.1475C8.40306 20.1332 8.39131 20.1161 8.3834 20.0971C8.37549 20.0781 8.37157 20.0577 8.37191 20.0372L8.32191 18.4156C8.32078 18.3794 8.33225 18.344 8.35437 18.3153C8.37648 18.2866 8.40787 18.2665 8.44316 18.2584ZM1.66441 20.7209C1.66441 20.715 1.66222 20.7094 1.66191 20.7034C1.65165 20.5809 1.6754 20.4579 1.73054 20.3481C1.78567 20.2382 1.87006 20.1456 1.97441 20.0806C2.44754 19.7569 4.46191 19.4897 7.40972 19.2728L7.43316 20.0647C7.44254 20.3489 7.56175 20.6184 7.76572 20.8166C7.96969 21.0147 8.24254 21.126 8.52691 21.1272H8.54129L9.01004 21.1206C9.28589 21.1161 9.54995 21.008 9.74975 20.8177C9.94955 20.6275 10.0705 20.369 10.0885 20.0937L10.1482 19.1006C14.0344 18.8866 18.9003 18.7344 23.8766 18.6347C24.9543 19.2455 25.9436 20.0005 26.8172 20.8787C26.9034 20.9683 27.0217 21.02 27.146 21.0224C27.2703 21.0248 27.3904 20.9777 27.48 20.8916C27.5696 20.8054 27.6213 20.6871 27.6237 20.5628C27.6261 20.4385 27.579 20.3183 27.4928 20.2287C26.9052 19.6276 26.2619 19.0835 25.5716 18.6037C29.89 18.5275 34.2175 18.4903 37.9903 18.4856C38.0116 18.4856 38.0328 18.4841 38.0544 18.4841C38.3452 18.4801 38.6286 18.5757 38.8575 18.755C38.9602 18.8328 39.0449 18.9319 39.1057 19.0455C39.1666 19.1591 39.2021 19.2845 39.21 19.4131C39.1987 19.6766 39.0903 19.9266 38.9057 20.1149C38.7211 20.3033 38.4733 20.4166 38.21 20.4331C38.1666 20.4391 37.9675 20.4581 37.87 20.4709C35.5575 20.7741 9.8641 24.0587 2.21847 21.3628C2.0777 21.3204 1.95144 21.2398 1.85374 21.13C1.75603 21.0202 1.69071 20.8854 1.66504 20.7406L1.66441 20.7209ZM39.0313 23.3106C38.8587 23.5106 38.6224 23.6449 38.3622 23.6906C38.316 23.6984 38.1122 23.7219 38.0232 23.7353C37.1222 23.8831 32.005 24.7 25.6169 25.2441C18.4538 25.8534 12.33 25.915 7.41629 25.4244C2.26222 24.91 1.80472 24.2116 1.78129 23.5966L1.72347 22.1659C1.78342 22.1953 1.84486 22.2216 1.90754 22.2447C4.23441 23.0647 8.07566 23.3603 12.4113 23.3603C23.2403 23.3603 37.141 21.5134 38.1416 21.3784C38.5487 21.3575 38.9425 21.2267 39.2813 21L39.3438 22.4041C39.3609 22.7353 39.2489 23.0603 39.0313 23.3106Z" fill="black"/>
</g>
<defs>
<clipPath id="clip0_11_1373">
<rect width="40" height="40" fill="white" transform="translate(0.5)"/>
</clipPath>
</defs>
</svg>
