<svg width="40" height="40" viewBox="0 0 40 40" fill="none" xmlns="http://www.w3.org/2000/svg">
<g clip-path="url(#clip0_11_1351)">
<path d="M3.94403 22.532C4.06003 22.1 4.13603 20.948 4.21603 19.732C4.31203 18.276 4.42003 16.624 4.63203 15.3C4.91203 13.564 5.32403 12.784 5.96403 12.772C6.70403 12.76 7.06403 13.536 7.41603 14.288C7.75203 15.012 8.10003 15.76 8.73603 15.952C9.19203 16.092 9.80003 15.932 10.54 15.484C10.616 15.44 10.688 15.392 10.76 15.348L10.4 15.224C9.94003 15.06 9.58403 14.704 9.42003 14.24C9.26003 13.78 9.31603 13.276 9.57603 12.864L9.71203 12.648C10.104 12.02 10.904 11.792 11.568 12.112L15.696 14.108C16.588 14.488 17.8 15.116 19.6 16.044L19.976 16.236C27.2 19.972 32.74 20.692 34.264 20.824C35.3 20.912 35.888 21.396 36.196 21.784C36.432 22.08 36.544 22.36 36.596 22.516C36.8 22.696 37.148 23.168 36.932 24.268C36.74 25.248 35.044 26.104 34.048 26.528C32.376 27.236 30.384 27.724 28.576 27.864C26.864 27.996 22.456 28.032 18.136 28.032C12.94 28.032 7.87203 27.98 7.78003 27.98H7.77603C7.64003 27.976 4.48003 27.888 3.38003 26.348C2.98003 25.788 2.89603 25.116 3.13603 24.356C3.15603 24.284 3.43603 23.36 3.94403 22.532ZM4.82003 19.772C4.74003 20.988 4.67603 21.98 4.56803 22.528C5.15203 22.896 5.99203 22.884 7.06803 22.492C7.11603 22.476 7.16003 22.456 7.20803 22.44C7.76803 21.88 8.39203 21.312 9.08803 20.728C7.29203 19.708 5.96803 19.028 4.90003 18.58C4.87203 18.984 4.84403 19.384 4.82003 19.772ZM8.54803 22C9.26403 21.796 9.96403 21.672 10.688 21.692C11.676 21.72 12.68 22.012 13.544 22.28C13.956 22.408 14.368 22.544 14.764 22.676C15.692 22.98 16.652 23.3 17.624 23.528C20.172 24.132 22.912 24.488 26 24.616C27.044 24.66 28.104 24.68 29.148 24.632C28.96 24.384 28.576 24.076 28.176 23.752C27.488 23.192 26.632 22.5 25.884 21.52C25.588 21.484 25.296 21.412 25.008 21.304C25.004 21.304 25.004 21.304 25 21.3L14.944 17.276C12.256 18.992 10.168 20.532 8.54803 22ZM11.308 12.656C10.92 12.468 10.456 12.604 10.224 12.968L10.088 13.184C9.92803 13.44 9.89203 13.756 9.99203 14.04C10.092 14.328 10.316 14.552 10.6 14.652L11.4 14.936C11.612 14.792 11.8 14.66 11.968 14.544C12.548 14.136 12.984 13.832 13.48 13.708L11.308 12.656ZM15.432 14.652C15.012 14.476 14.676 14.36 14.388 14.3C13.6 14.136 13.224 14.4 12.312 15.04C11.932 15.304 11.46 15.636 10.848 16.008C9.94003 16.556 9.19203 16.732 8.55603 16.536C7.66403 16.264 7.24003 15.352 6.86403 14.548C6.58403 13.944 6.32003 13.376 5.97203 13.38C5.92803 13.38 5.54403 13.444 5.22803 15.4C5.10403 16.168 5.01603 17.052 4.94403 17.948C6.10803 18.424 7.56003 19.168 9.58403 20.324C11.48 18.8 13.88 17.172 16.916 15.352C16.328 15.056 15.84 14.824 15.432 14.652ZM19.696 16.776L19.32 16.584C18.656 16.24 18.072 15.936 17.556 15.676C16.864 16.088 16.208 16.488 15.58 16.88L25.224 20.74C26.256 21.124 27.416 20.968 28.324 20.32L28.384 20.276C25.984 19.58 23.012 18.492 19.696 16.776ZM34.208 21.428C33.432 21.36 31.632 21.144 29.116 20.472L28.688 20.8C28.684 20.8 28.684 20.804 28.68 20.804C28.08 21.232 27.388 21.48 26.68 21.536C27.308 22.264 27.992 22.82 28.56 23.284C29.176 23.784 29.656 24.176 29.82 24.596C31.892 24.44 33.888 23.984 35.584 22.884C35.6 22.872 35.648 22.832 35.692 22.796C35.776 22.728 35.88 22.648 35.968 22.58C35.824 22.232 35.388 21.532 34.208 21.428ZM3.86803 25.996C4.78403 27.28 7.71203 27.372 7.78803 27.376C8.07203 27.38 24.796 27.552 28.528 27.264C30.272 27.128 32.196 26.66 33.808 25.976C35.556 25.232 36.264 24.532 36.336 24.156C36.452 23.552 36.368 23.244 36.288 23.096C36.208 23.16 36.116 23.228 36.064 23.272C35.964 23.348 35.936 23.372 35.912 23.388C34.58 24.248 32.996 24.8 31.072 25.068C29.272 25.32 27.404 25.284 25.976 25.224C22.848 25.092 20.072 24.732 17.484 24.12C16.488 23.884 15.512 23.564 14.572 23.252C14.176 23.12 13.768 22.988 13.36 22.86C12.536 22.6 11.576 22.324 10.668 22.296C9.56003 22.264 8.47203 22.624 7.26803 23.064C6.04803 23.508 5.05603 23.516 4.31603 23.092C3.92803 23.796 3.70803 24.524 3.70803 24.532V24.536C3.52803 25.112 3.58003 25.592 3.86803 25.996Z" fill="black"/>
<path d="M17.512 17.284C17.18 17.284 16.908 17.012 16.908 16.68C16.908 16.348 17.18 16.076 17.512 16.076C17.844 16.076 18.116 16.348 18.116 16.68C18.116 17.012 17.844 17.284 17.512 17.284Z" fill="black"/>
<path d="M20.104 18.432C19.772 18.432 19.5 18.16 19.5 17.828C19.5 17.496 19.772 17.224 20.104 17.224C20.436 17.224 20.708 17.496 20.708 17.828C20.708 18.16 20.436 18.432 20.104 18.432Z" fill="black"/>
<path d="M22.6321 19.516C22.3001 19.516 22.0281 19.244 22.0281 18.912C22.0281 18.58 22.3001 18.308 22.6321 18.308C22.9641 18.308 23.2361 18.58 23.2361 18.912C23.2361 19.244 22.9681 19.516 22.6321 19.516Z" fill="black"/>
<path d="M25.448 20.66C25.116 20.66 24.844 20.388 24.844 20.056C24.844 19.724 25.116 19.452 25.448 19.452C25.78 19.452 26.052 19.724 26.052 20.056C26.052 20.388 25.78 20.66 25.448 20.66Z" fill="black"/>
</g>
<defs>
<clipPath id="clip0_11_1351">
<rect width="40" height="40" fill="white" transform="matrix(-1 0 0 1 40 0)"/>
</clipPath>
</defs>
</svg>
